<svg width="55" height="16" viewBox="0 0 55 16" fill="none" xmlns="http://www.w3.org/2000/svg">
<path fill-rule="evenodd" clip-rule="evenodd" d="M46.6673 15.9973H46.9285V14.7535L47.3854 15.9973H47.6247L48.0818 14.7535V15.9973H48.3428V14.3889H47.9512L47.516 15.6542L47.0589 14.3889H46.6673V15.9973ZM45.144 14.6247H45.6663V15.9973H45.9492V14.6247H46.4714V14.3889H45.144V14.6247ZM38.7619 15.998L55 0H47.1445L30.9063 15.998H38.7619ZM40.0722 5.59738H24.274C19.4649 5.59738 18.6163 5.85473 16.5489 7.89208C14.6123 9.80077 8.30667 15.9897 8.30667 15.9897H15.1612L19.9654 11.2591C21.0317 10.2082 21.5975 10.101 23.8388 10.101H35.5243L40.0722 5.59738ZM16.3314 6.96991C14.9169 8.29955 8.78 14.3916 7.10443 16H0C0 16 8.67161 7.07714 11.9575 3.8817C15.3304 0.72916 17.006 0 23.2078 0H45.7518L40.8774 4.80387H23.6647C19.3126 4.80387 18.3334 5.10411 16.3314 6.96991Z" fill="white"/>
</svg>
