<svg width="103" height="30" viewBox="0 0 103 30" fill="none" xmlns="http://www.w3.org/2000/svg">
<path fill-rule="evenodd" clip-rule="evenodd" d="M87.3951 29.995H87.8842V27.6628L88.74 29.995H89.1881L90.0441 27.6628V29.995H90.5329V26.9792H89.7995L88.9845 29.3517L88.1285 26.9792H87.3951V29.995ZM84.5424 27.4214H85.5206V29.995H86.0503V27.4214H87.0282V26.9792H84.5424V27.4214ZM72.5906 29.9962L103 0H88.2888L57.8791 29.9962H72.5906ZM75.0443 10.4951H45.4585C36.4525 10.4951 34.8632 10.9776 30.9916 14.7976C27.3648 18.3764 15.5561 29.9807 15.5561 29.9807H28.3928L37.3897 21.1108C39.3867 19.1404 40.4462 18.9394 44.6435 18.9394H66.5274L75.0443 10.4951ZM30.5842 13.0686C27.9353 15.5617 16.4425 26.9842 13.3047 30H0C0 30 16.2396 13.2696 22.3931 7.27819C28.7096 1.36717 31.8476 0 43.4618 0H85.6806L76.5522 9.00726H44.3175C36.1673 9.00726 34.3334 9.57021 30.5842 13.0686Z" fill="white"/>
</svg>
